<?xml version="1.0" encoding="UTF-8" standalone="no"?>
<svg width="110px" height="46px" viewBox="0 0 110 46" version="1.1" xmlns="http://www.w3.org/2000/svg" xmlns:xlink="http://www.w3.org/1999/xlink">
    <!-- Generator: Sketch 42 (36781) - http://www.bohemiancoding.com/sketch -->
    <title>logo</title>
    <desc>Created with Sketch.</desc>
    <defs>
        <rect id="path-1" x="0" y="0" width="110" height="47"></rect>
        <rect id="path-3" x="0" y="0" width="42" height="46" rx="2"></rect>
        <mask id="mask-4" maskContentUnits="userSpaceOnUse" maskUnits="objectBoundingBox" x="0" y="0" width="42" height="46" fill="white">
            <use xlink:href="#path-3"></use>
        </mask>
    </defs>
    <g id="Symbols" stroke="none" stroke-width="1" fill="none" fill-rule="evenodd">
        <g id="logo">
            <g id="Group-2">
                <mask id="mask-2" fill="white">
                    <use xlink:href="#path-1"></use>
                </mask>
                <use id="Rectangle-4" fill-opacity="0" fill="#FFFFFF" xlink:href="#path-1"></use>
                <g id="icon" mask="url(#mask-2)">
                    <g transform="translate(68.000000, 0.000000)">
                        <use id="Rectangle" stroke="#FFFFFF" mask="url(#mask-4)" stroke-width="6" fill="none" xlink:href="#path-3"></use>
                        <text id="01" stroke="none" fill="none" font-family="SourceSansPro-Bold, Source Sans Pro" font-size="24" font-weight="bold" letter-spacing="0.00999999978">
                            <tspan x="8.318" y="38" fill="#FFFFFF">01</tspan>
                        </text>
                        <rect id="Rectangle-2" stroke="none" fill="#FCD391" fill-rule="evenodd" x="3" y="3" width="36" height="12"></rect>
                        <circle id="Oval" stroke="#FFFFFF" stroke-width="2" fill-opacity="0" fill="#FFFFFF" fill-rule="evenodd" cx="11" cy="9" r="2"></circle>
                        <circle id="Oval-Copy" stroke="#FFFFFF" stroke-width="2" fill-opacity="0" fill="#FFFFFF" fill-rule="evenodd" cx="31" cy="9" r="2"></circle>
                        <rect id="Rectangle-3" stroke="none" fill="#FFFFFF" fill-rule="evenodd" x="3" y="15" width="36" height="3"></rect>
                    </g>
                </g>
                <path d="M-0.0719995193,4.112 L3.28800048,4.112 L3.56800048,5.876 L3.68000048,5.876 C4.2773368,5.3159972 4.9306636,4.8260021 5.64000048,4.406 C6.34933736,3.9859979 7.17999572,3.776 8.13200048,3.776 C9.64400804,3.776 10.7406637,4.27066172 11.4220005,5.26 C12.1033372,6.24933828 12.4440005,7.62132456 12.4440005,9.376 L12.4440005,18 L8.32800048,18 L8.32800048,9.908 C8.32800048,8.89999496 8.1926685,8.2093352 7.92200048,7.836 C7.65133246,7.4626648 7.2173368,7.276 6.62000048,7.276 C6.0973312,7.276 5.64933568,7.3926655 5.27600048,7.626 C4.90266528,7.8593345 4.49200272,8.19066452 4.04400048,8.62 L4.04400048,18 L-0.0719995193,18 L-0.0719995193,4.112 Z M16.3080004,11.056 C16.3080004,9.9359944 16.4946652,8.92333786 16.8680004,8.018 C17.2413356,7.11266214 17.7313307,6.34733646 18.3380004,5.722 C18.9446701,5.09666354 19.6399964,4.61600168 20.4240004,4.28 C21.2080043,3.94399832 22.0199962,3.776 22.8600004,3.776 C23.8493386,3.776 24.7126633,3.94399832 25.4500004,4.28 C26.1873374,4.61600168 26.8033312,5.08266368 27.2980004,5.68 C27.7926695,6.27733632 28.1613325,6.98199594 28.4040004,7.794 C28.6466682,8.60600406 28.7680004,9.48799524 28.7680004,10.44 C28.7680004,10.8133352 28.7493339,11.1539985 28.7120004,11.462 C28.6746668,11.7700015 28.6373339,12.0079992 28.6000004,12.176 L20.2840004,12.176 C20.470668,13.2400053 20.8859971,14.0099976 21.5300004,14.486 C22.1740036,14.9620024 22.9626624,15.2 23.8960004,15.2 C24.8853386,15.2 25.8839953,14.8920031 26.8920004,14.276 L28.2640004,16.768 C27.5546635,17.2533358 26.7660047,17.6359986 25.8980004,17.916 C25.029996,18.1960014 24.1760046,18.336 23.3360004,18.336 C22.3466621,18.336 21.4226713,18.1726683 20.5640004,17.846 C19.7053294,17.5193317 18.9586702,17.0433365 18.3240004,16.418 C17.6893305,15.7926635 17.1946688,15.0320045 16.8400004,14.136 C16.4853319,13.2399955 16.3080004,12.2133391 16.3080004,11.056 Z M25.2680004,9.628 C25.2680004,8.82532932 25.0906688,8.17200252 24.7360004,7.668 C24.3813319,7.16399748 23.7840046,6.912 22.9440004,6.912 C22.2906638,6.912 21.7166695,7.13133114 21.2220004,7.57 C20.7273312,8.00866886 20.4053344,8.694662 20.2560004,9.628 L25.2680004,9.628 Z M35.1800002,10.776 L31.1760002,4.112 L35.6000002,4.112 L36.8320002,6.352 C37.0186678,6.74400196 37.2099993,7.14066466 37.4060002,7.542 C37.6020012,7.94333534 37.8026659,8.33999804 38.0080002,8.732 L38.1200002,8.732 C38.2693343,8.33999804 38.4279994,7.94333534 38.5960002,7.542 C38.7640011,7.14066466 38.9226662,6.74400196 39.0720002,6.352 L40.0240002,4.112 L44.2800002,4.112 L40.2480002,11.252 L44.5320002,18 L40.1080002,18 L38.7640002,15.704 C38.5399991,15.311998 38.320668,14.9106687 38.1060002,14.5 C37.8913325,14.0893313 37.6720014,13.688002 37.4480002,13.296 L37.3360002,13.296 C37.1679994,13.688002 36.9906678,14.0846647 36.8040002,14.486 C36.6173326,14.8873353 36.4400011,15.2933313 36.2720002,15.704 L35.1800002,18 L30.9240002,18 L35.1800002,10.776 Z M48.4800001,7.332 L46.5760001,7.332 L46.5760001,4.28 L48.7040001,4.112 L49.1800001,0.416 L52.5960001,0.416 L52.5960001,4.112 L55.9280001,4.112 L55.9280001,7.332 L52.5960001,7.332 L52.5960001,12.904 C52.5960001,13.6880039 52.7593318,14.2526649 53.0860001,14.598 C53.4126684,14.9433351 53.8466641,15.116 54.3880001,15.116 C54.6120012,15.116 54.8406656,15.0880003 55.0740001,15.032 C55.3073346,14.9759997 55.5173325,14.910667 55.7040001,14.836 L56.3480001,17.832 C55.9746649,17.9440006 55.5360026,18.0559994 55.0320001,18.168 C54.5279976,18.2800006 53.9400035,18.336 53.2680001,18.336 C52.4093292,18.336 51.6766698,18.2053346 51.0700001,17.944 C50.4633304,17.6826654 49.9686687,17.318669 49.5860001,16.852 C49.2033315,16.385331 48.9233343,15.82067 48.7460001,15.158 C48.5686659,14.49533 48.4800001,13.7626707 48.4800001,12.96 L48.4800001,7.332 Z M6.98400048,35.332 L5.08000048,35.332 L5.08000048,32.28 L7.20800048,32.112 L7.68400048,28.416 L11.1000005,28.416 L11.1000005,32.112 L14.4320005,32.112 L14.4320005,35.332 L11.1000005,35.332 L11.1000005,40.904 C11.1000005,41.6880039 11.2633322,42.2526649 11.5900005,42.598 C11.9166688,42.9433351 12.3506644,43.116 12.8920005,43.116 C13.1160016,43.116 13.344666,43.0880003 13.5780005,43.032 C13.811335,42.9759997 14.0213329,42.910667 14.2080005,42.836 L14.8520005,45.832 C14.4786653,45.9440006 14.040003,46.0559994 13.5360005,46.168 C13.031998,46.2800006 12.4440038,46.336 11.7720005,46.336 C10.9133295,46.336 10.1806702,46.2053346 9.57400048,45.944 C8.96733078,45.6826654 8.47266906,45.318669 8.09000048,44.852 C7.7073319,44.385331 7.4273347,43.82067 7.25000048,43.158 C7.07266626,42.49533 6.98400048,41.7626707 6.98400048,40.96 L6.98400048,35.332 Z M17.4840004,42.136 C17.4840004,40.6799927 18.0999942,39.5413374 19.3320004,38.72 C20.5640065,37.8986626 22.5519866,37.3480014 25.2960004,37.068 C25.2586668,36.4519969 25.072002,35.9620018 24.7360004,35.598 C24.3999987,35.2339982 23.8586708,35.052 23.1120004,35.052 C22.514664,35.052 21.9173367,35.1639989 21.3200004,35.388 C20.722664,35.6120011 20.0880037,35.919998 19.4160004,36.312 L17.9600004,33.596 C18.8560048,33.054664 19.7939955,32.6160017 20.7740004,32.28 C21.7540053,31.9439983 22.7946615,31.776 23.8960004,31.776 C25.6880093,31.776 27.055329,32.2846616 27.9980004,33.302 C28.9406717,34.3193384 29.4120004,35.9013226 29.4120004,38.048 L29.4120004,46 L26.0520004,46 L25.7440004,44.572 L25.6600004,44.572 C25.062664,45.0946693 24.4326703,45.5193317 23.7700004,45.846 C23.1073304,46.1726683 22.3840043,46.336 21.6000004,46.336 C20.9653305,46.336 20.3960029,46.2286677 19.8920004,46.014 C19.3879978,45.7993323 18.9586688,45.5006686 18.6040004,45.118 C18.2493319,44.7353314 17.9740013,44.2920025 17.7780004,43.788 C17.5819994,43.2839975 17.4840004,42.7333363 17.4840004,42.136 Z M21.4040004,41.828 C21.4040004,42.2760022 21.5486656,42.6073323 21.8380004,42.822 C22.1273351,43.0366677 22.5146646,43.144 23.0000004,43.144 C23.4853361,43.144 23.8959987,43.0413344 24.2320004,42.836 C24.568002,42.6306656 24.9226652,42.3413352 25.2960004,41.968 L25.2960004,39.532 C23.8213263,39.7373344 22.8040032,40.035998 22.2440004,40.428 C21.6839976,40.820002 21.4040004,41.286664 21.4040004,41.828 Z M34.1160002,26.372 L38.2320002,26.372 L38.2320002,41.856 C38.2320002,42.2853355 38.3113328,42.5839992 38.4700002,42.752 C38.6286677,42.9200008 38.7919994,43.004 38.9600002,43.004 L39.1980002,43.004 C39.2633339,43.004 39.3519997,42.9853335 39.4640002,42.948 L39.9680002,46 C39.7439991,46.0933338 39.4593353,46.1726663 39.1140002,46.238 C38.7686652,46.3033337 38.3626692,46.336 37.8960002,46.336 C37.1866634,46.336 36.589336,46.2240011 36.1040002,46 C35.6186645,45.7759989 35.231335,45.4633353 34.9420002,45.062 C34.6526655,44.6606647 34.4426676,44.1753362 34.3120002,43.606 C34.1813329,43.0366638 34.1160002,42.3973369 34.1160002,41.688 L34.1160002,26.372 Z M43.3000001,26.372 L47.3040001,26.372 L47.3040001,37.628 L47.4160001,37.628 L51.8120001,32.112 L56.2920001,32.112 L51.4200001,37.824 L56.6560001,46 L52.2040001,46 L49.0680001,40.596 L47.3040001,42.584 L47.3040001,46 L43.3000001,46 L43.3000001,26.372 Z" id="next-talk" fill="#FFFFFF" mask="url(#mask-2)"></path>
            </g>
        </g>
    </g>
</svg>