<?xml version="1.0" encoding="UTF-8" standalone="no"?>
<svg width="112px" height="47px" viewBox="0 0 112 47" version="1.1" xmlns="http://www.w3.org/2000/svg" xmlns:xlink="http://www.w3.org/1999/xlink" style="background: #FFFFFF;">
    <!-- Generator: Sketch 42 (36781) - http://www.bohemiancoding.com/sketch -->
    <title>logo black</title>
    <desc>Created with Sketch.</desc>
    <defs>
        <rect id="path-1" x="0" y="0" width="42" height="46" rx="2"></rect>
        <mask id="mask-2" maskContentUnits="userSpaceOnUse" maskUnits="objectBoundingBox" x="0" y="0" width="42" height="46" fill="white">
            <use xlink:href="#path-1"></use>
        </mask>
        <circle id="path-3" cx="31" cy="9" r="2"></circle>
    </defs>
    <g id="Symbols" stroke="none" stroke-width="1" fill="none" fill-rule="evenodd">
        <g id="logo-black">
            <g id="Group-2" transform="translate(1.000000, 0.000000)">
                <g id="symbol" transform="translate(69.000000, 0.000000)">
                    <use id="Rectangle" stroke="#4D4D4D" mask="url(#mask-2)" stroke-width="6" xlink:href="#path-1"></use>
                    <text id="01" font-family="SourceSansPro-Bold, Source Sans Pro" font-size="24" font-weight="bold" letter-spacing="0.00999999978" fill="#4D4D4D">
                        <tspan x="8.636" y="38">01</tspan>
                    </text>
                    <rect id="Rectangle-2" fill="#FCD391" x="3" y="3" width="36" height="12"></rect>
                    <circle id="Oval" stroke="#4D4D4D" stroke-width="2" fill-opacity="0" fill="#FFFFFF" cx="11" cy="9" r="2"></circle>
                    <g id="Oval-Copy">
                        <use stroke="#585858" stroke-width="2" fill-opacity="0" fill="#FFFFFF" fill-rule="evenodd" xlink:href="#path-3"></use>
                        <use stroke="#4D4D4D" stroke-width="1" xlink:href="#path-3"></use>
                    </g>
                    <rect id="Rectangle-3" fill="#4D4D4D" x="3" y="15" width="36" height="3"></rect>
                </g>
                <path d="M0.928000481,4.112 L4.28800048,4.112 L4.56800048,5.876 L4.68000048,5.876 C5.2773368,5.3159972 5.9306636,4.8260021 6.64000048,4.406 C7.34933736,3.9859979 8.17999572,3.776 9.13200048,3.776 C10.644008,3.776 11.7406637,4.27066172 12.4220005,5.26 C13.1033372,6.24933828 13.4440005,7.62132456 13.4440005,9.376 L13.4440005,18 L9.32800048,18 L9.32800048,9.908 C9.32800048,8.89999496 9.1926685,8.2093352 8.92200048,7.836 C8.65133246,7.4626648 8.2173368,7.276 7.62000048,7.276 C7.0973312,7.276 6.64933568,7.3926655 6.27600048,7.626 C5.90266528,7.8593345 5.49200272,8.19066452 5.04400048,8.62 L5.04400048,18 L0.928000481,18 L0.928000481,4.112 Z M17.3080004,11.056 C17.3080004,9.9359944 17.4946652,8.92333786 17.8680004,8.018 C18.2413356,7.11266214 18.7313307,6.34733646 19.3380004,5.722 C19.9446701,5.09666354 20.6399964,4.61600168 21.4240004,4.28 C22.2080043,3.94399832 23.0199962,3.776 23.8600004,3.776 C24.8493386,3.776 25.7126633,3.94399832 26.4500004,4.28 C27.1873374,4.61600168 27.8033312,5.08266368 28.2980004,5.68 C28.7926695,6.27733632 29.1613325,6.98199594 29.4040004,7.794 C29.6466682,8.60600406 29.7680004,9.48799524 29.7680004,10.44 C29.7680004,10.8133352 29.7493339,11.1539985 29.7120004,11.462 C29.6746668,11.7700015 29.6373339,12.0079992 29.6000004,12.176 L21.2840004,12.176 C21.470668,13.2400053 21.8859971,14.0099976 22.5300004,14.486 C23.1740036,14.9620024 23.9626624,15.2 24.8960004,15.2 C25.8853386,15.2 26.8839953,14.8920031 27.8920004,14.276 L29.2640004,16.768 C28.5546635,17.2533358 27.7660047,17.6359986 26.8980004,17.916 C26.029996,18.1960014 25.1760046,18.336 24.3360004,18.336 C23.3466621,18.336 22.4226713,18.1726683 21.5640004,17.846 C20.7053294,17.5193317 19.9586702,17.0433365 19.3240004,16.418 C18.6893305,15.7926635 18.1946688,15.0320045 17.8400004,14.136 C17.4853319,13.2399955 17.3080004,12.2133391 17.3080004,11.056 Z M26.2680004,9.628 C26.2680004,8.82532932 26.0906688,8.17200252 25.7360004,7.668 C25.3813319,7.16399748 24.7840046,6.912 23.9440004,6.912 C23.2906638,6.912 22.7166695,7.13133114 22.2220004,7.57 C21.7273312,8.00866886 21.4053344,8.694662 21.2560004,9.628 L26.2680004,9.628 Z M36.1800002,10.776 L32.1760002,4.112 L36.6000002,4.112 L37.8320002,6.352 C38.0186678,6.74400196 38.2099993,7.14066466 38.4060002,7.542 C38.6020012,7.94333534 38.8026659,8.33999804 39.0080002,8.732 L39.1200002,8.732 C39.2693343,8.33999804 39.4279994,7.94333534 39.5960002,7.542 C39.7640011,7.14066466 39.9226662,6.74400196 40.0720002,6.352 L41.0240002,4.112 L45.2800002,4.112 L41.2480002,11.252 L45.5320002,18 L41.1080002,18 L39.7640002,15.704 C39.5399991,15.311998 39.320668,14.9106687 39.1060002,14.5 C38.8913325,14.0893313 38.6720014,13.688002 38.4480002,13.296 L38.3360002,13.296 C38.1679994,13.688002 37.9906678,14.0846647 37.8040002,14.486 C37.6173326,14.8873353 37.4400011,15.2933313 37.2720002,15.704 L36.1800002,18 L31.9240002,18 L36.1800002,10.776 Z M49.4800001,7.332 L47.5760001,7.332 L47.5760001,4.28 L49.7040001,4.112 L50.1800001,0.416 L53.5960001,0.416 L53.5960001,4.112 L56.9280001,4.112 L56.9280001,7.332 L53.5960001,7.332 L53.5960001,12.904 C53.5960001,13.6880039 53.7593318,14.2526649 54.0860001,14.598 C54.4126684,14.9433351 54.8466641,15.116 55.3880001,15.116 C55.6120012,15.116 55.8406656,15.0880003 56.0740001,15.032 C56.3073346,14.9759997 56.5173325,14.910667 56.7040001,14.836 L57.3480001,17.832 C56.9746649,17.9440006 56.5360026,18.0559994 56.0320001,18.168 C55.5279976,18.2800006 54.9400035,18.336 54.2680001,18.336 C53.4093292,18.336 52.6766698,18.2053346 52.0700001,17.944 C51.4633304,17.6826654 50.9686687,17.318669 50.5860001,16.852 C50.2033315,16.385331 49.9233343,15.82067 49.7460001,15.158 C49.5686659,14.49533 49.4800001,13.7626707 49.4800001,12.96 L49.4800001,7.332 Z M7.98400048,35.332 L6.08000048,35.332 L6.08000048,32.28 L8.20800048,32.112 L8.68400048,28.416 L12.1000005,28.416 L12.1000005,32.112 L15.4320005,32.112 L15.4320005,35.332 L12.1000005,35.332 L12.1000005,40.904 C12.1000005,41.6880039 12.2633322,42.2526649 12.5900005,42.598 C12.9166688,42.9433351 13.3506644,43.116 13.8920005,43.116 C14.1160016,43.116 14.344666,43.0880003 14.5780005,43.032 C14.811335,42.9759997 15.0213329,42.910667 15.2080005,42.836 L15.8520005,45.832 C15.4786653,45.9440006 15.040003,46.0559994 14.5360005,46.168 C14.031998,46.2800006 13.4440038,46.336 12.7720005,46.336 C11.9133295,46.336 11.1806702,46.2053346 10.5740005,45.944 C9.96733078,45.6826654 9.47266906,45.318669 9.09000048,44.852 C8.7073319,44.385331 8.4273347,43.82067 8.25000048,43.158 C8.07266626,42.49533 7.98400048,41.7626707 7.98400048,40.96 L7.98400048,35.332 Z M18.4840004,42.136 C18.4840004,40.6799927 19.0999942,39.5413374 20.3320004,38.72 C21.5640065,37.8986626 23.5519866,37.3480014 26.2960004,37.068 C26.2586668,36.4519969 26.072002,35.9620018 25.7360004,35.598 C25.3999987,35.2339982 24.8586708,35.052 24.1120004,35.052 C23.514664,35.052 22.9173367,35.1639989 22.3200004,35.388 C21.722664,35.6120011 21.0880037,35.919998 20.4160004,36.312 L18.9600004,33.596 C19.8560048,33.054664 20.7939955,32.6160017 21.7740004,32.28 C22.7540053,31.9439983 23.7946615,31.776 24.8960004,31.776 C26.6880093,31.776 28.055329,32.2846616 28.9980004,33.302 C29.9406717,34.3193384 30.4120004,35.9013226 30.4120004,38.048 L30.4120004,46 L27.0520004,46 L26.7440004,44.572 L26.6600004,44.572 C26.062664,45.0946693 25.4326703,45.5193317 24.7700004,45.846 C24.1073304,46.1726683 23.3840043,46.336 22.6000004,46.336 C21.9653305,46.336 21.3960029,46.2286677 20.8920004,46.014 C20.3879978,45.7993323 19.9586688,45.5006686 19.6040004,45.118 C19.2493319,44.7353314 18.9740013,44.2920025 18.7780004,43.788 C18.5819994,43.2839975 18.4840004,42.7333363 18.4840004,42.136 Z M22.4040004,41.828 C22.4040004,42.2760022 22.5486656,42.6073323 22.8380004,42.822 C23.1273351,43.0366677 23.5146646,43.144 24.0000004,43.144 C24.4853361,43.144 24.8959987,43.0413344 25.2320004,42.836 C25.568002,42.6306656 25.9226652,42.3413352 26.2960004,41.968 L26.2960004,39.532 C24.8213263,39.7373344 23.8040032,40.035998 23.2440004,40.428 C22.6839976,40.820002 22.4040004,41.286664 22.4040004,41.828 Z M35.1160002,26.372 L39.2320002,26.372 L39.2320002,41.856 C39.2320002,42.2853355 39.3113328,42.5839992 39.4700002,42.752 C39.6286677,42.9200008 39.7919994,43.004 39.9600002,43.004 L40.1980002,43.004 C40.2633339,43.004 40.3519997,42.9853335 40.4640002,42.948 L40.9680002,46 C40.7439991,46.0933338 40.4593353,46.1726663 40.1140002,46.238 C39.7686652,46.3033337 39.3626692,46.336 38.8960002,46.336 C38.1866634,46.336 37.589336,46.2240011 37.1040002,46 C36.6186645,45.7759989 36.231335,45.4633353 35.9420002,45.062 C35.6526655,44.6606647 35.4426676,44.1753362 35.3120002,43.606 C35.1813329,43.0366638 35.1160002,42.3973369 35.1160002,41.688 L35.1160002,26.372 Z M44.3000001,26.372 L48.3040001,26.372 L48.3040001,37.628 L48.4160001,37.628 L52.8120001,32.112 L57.2920001,32.112 L52.4200001,37.824 L57.6560001,46 L53.2040001,46 L50.0680001,40.596 L48.3040001,42.584 L48.3040001,46 L44.3000001,46 L44.3000001,26.372 Z" id="next-talk" fill="#4D4D4D"></path>
            </g>
        </g>
    </g>
</svg>